<svg xmlns="http://www.w3.org/2000/svg" viewBox="0 0 512 512">
<circle cx="256" cy="256" r="256" fill="#31bafd"/>
<path d="M256 512c116.553 0 214.902-77.896 245.857-184.465L391.801 217.479 379.51 227.49l-26.493-26.493-16.124 15.598-103.085-103.084-14.041 12.035-33.058-33.058-41.613 50.884-55.36 40.37 37.071 37.071-16.446 10.399 60.306 60.304v71.742l-55.17-8.501 55.17 55.17v87.485C197.36 506.849 226.076 512 256 512z" fill="#2b9ed8"/><path d="M338.627 313.129v68.542c-3.951-13.579-16.162-33.297-53.301-41.162 0 0-2.548 48.175 53.301 54.86v102.996c1.733-.59 3.456-1.195 5.172-1.822V313.129h-5.172z" fill="#239e40"/><path d="M343.798 313.129h-3.327v184.587c1.11-.386 2.224-.769 3.327-1.172V313.129z" fill="#1a8731"/><path d="M239.6 272.474c-45.221 9.576-60.881 33.214-66.227 50.121v-94.798h-5.172v135.995c-5.108-16.951-20.544-41.177-66.467-50.902 0 0-3.219 60.173 66.467 68.586v115.069a257.06 257.06 0 0 0 5.172 1.822V341.033c69.439-8.523 66.227-68.559 66.227-68.559z" fill="#239e40"/><path d="M239.6 272.474c-45.221 9.576-60.881 33.214-66.227 50.121v-94.798h-2.993v269.515c.996.353 1.991.712 2.993 1.053V341.032c69.439-8.522 66.227-68.558 66.227-68.558z" fill="#1a8731"/><path d="M192.15 106.696c0 11.798-9.564 53.408-21.363 53.408s-21.364-41.608-21.364-53.408 9.566-21.363 21.364-21.363 21.363 9.565 21.363 21.363z" fill="#fff"/><path d="M170.787 85.333c-.138 0-.271.017-.407.021v74.707c.136.01.271.045.407.045 11.798 0 21.363-41.61 21.363-53.408 0-11.8-9.564-21.365-21.363-21.365z" fill="#e6f3ff"/><path d="M149.423 234.877c0-11.798 9.564-53.408 21.363-53.408s21.363 41.61 21.363 53.408-9.564 21.363-21.363 21.363c-11.797 0-21.363-9.565-21.363-21.363z" fill="#fff"/><g fill="#e6f3ff"><path d="M170.787 181.469c-.136 0-.271.033-.407.045v74.707c.136.003.269.021.407.021 11.798 0 21.363-9.564 21.363-21.363 0-11.8-9.564-53.41-21.363-53.41zM234.877 192.15c-11.798 0-53.408-9.564-53.408-21.363s41.61-21.363 53.408-21.363c11.798 0 21.363 9.564 21.363 21.363s-9.565 21.363-21.363 21.363z"/></g><path d="M106.696 149.423c11.798 0 53.408 9.564 53.408 21.363s-41.61 21.363-53.408 21.363-21.363-9.563-21.363-21.361 9.565-21.365 21.363-21.365z" fill="#fff"/><path d="M231.212 140.574c-8.344 8.344-44.528 31.003-52.872 22.659-8.344-8.344 14.317-44.528 22.659-52.872 8.344-8.344 21.869-8.344 30.213 0 8.344 8.344 8.342 21.871 0 30.213z" fill="#cfdbe6"/><g fill="#e6f3ff"><path d="M110.363 200.999c8.344-8.344 44.528-31.003 52.872-22.659 8.344 8.344-14.317 44.528-22.659 52.872-8.344 8.344-21.869 8.344-30.213 0-8.344-8.344-8.344-21.87 0-30.213zM140.574 110.363c8.344 8.344 31.003 44.528 22.659 52.872-8.344 8.344-44.528-14.317-52.872-22.659-8.344-8.342-8.344-21.869 0-30.213s21.871-8.344 30.213 0z"/></g><path d="M200.999 231.212c-8.344-8.344-31.003-44.528-22.659-52.872 8.344-8.344 44.528 14.317 52.872 22.659 8.344 8.344 8.344 21.869 0 30.213-8.344 8.342-21.87 8.342-30.213 0z" fill="#cfdbe6"/>

<circle cx="170.787" cy="170.787" r="32.046" fill="#f9b54c"/><path d="M170.787 138.742c-.138 0-.271.019-.407.021v64.05c.136.002.269.021.407.021 17.698 0 32.046-14.346 32.046-32.046s-14.348-32.046-32.046-32.046z" fill="#f4a200"/><path d="M359.098 214.411c0 9.878-8.008 44.713-17.886 44.713s-17.886-34.837-17.886-44.713 8.008-17.886 17.886-17.886 17.886 8.008 17.886 17.886z" fill="#fff"/><path d="M341.213 196.525c-.25 0-.493.028-.741.038v62.481c.247.043.493.081.741.081 9.878 0 17.886-34.837 17.886-44.715-.001-9.877-8.008-17.885-17.886-17.885z" fill="#e6f3ff"/><path d="M323.327 321.724c0-9.878 8.008-44.713 17.886-44.713s17.886 34.837 17.886 44.713c0 9.878-8.008 17.885-17.886 17.885s-17.886-8.007-17.886-17.885z" fill="#fff"/><g fill="#e6f3ff"><path d="M341.213 277.011a4.32 4.32 0 0 0-.741.081v62.481c.248.01.491.038.741.038 9.878 0 17.886-8.008 17.886-17.885-.001-9.88-8.008-44.715-17.886-44.715zM394.869 285.953c-9.878 0-44.713-8.008-44.713-17.886s34.837-17.886 44.715-17.886 17.886 8.008 17.886 17.886c-.001 9.878-8.01 17.886-17.888 17.886z"/></g><path d="M287.556 250.182c9.878 0 44.713 8.008 44.713 17.886s-34.837 17.886-44.715 17.886-17.886-8.008-17.886-17.886c.001-9.879 8.01-17.886 17.888-17.886z" fill="#fff"/><path d="M391.801 242.774c-6.985 6.985-37.279 25.955-44.265 18.97-6.985-6.985 11.986-37.279 18.97-44.265 6.985-6.985 18.31-6.985 25.293 0 6.987 6.986 6.987 18.31.002 25.295z" fill="#cfdbe6"/><g fill="#e6f3ff"><path d="M290.625 293.36c6.985-6.985 37.279-25.955 44.265-18.97 6.985 6.985-11.986 37.279-18.97 44.265-6.985 6.985-18.31 6.985-25.293 0-6.986-6.985-6.986-18.309-.002-25.295zM315.919 217.479c6.985 6.985 25.955 37.279 18.97 44.265-6.985 6.985-37.279-11.986-44.265-18.97-6.985-6.985-6.985-18.31 0-25.293 6.986-6.987 18.31-6.987 25.295-.002z"/></g><path d="M366.508 318.655c-6.985-6.985-25.955-37.279-18.97-44.265 6.985-6.985 37.279 11.986 44.265 18.97 6.985 6.985 6.985 18.31 0 25.293-6.986 6.988-18.312 6.988-25.295.002z" fill="#cfdbe6"/><circle cx="341.213" cy="268.067" r="26.827" fill="#f9b54c"/><path d="M341.213 241.24c-.25 0-.493.031-.741.038v53.582c.248.007.491.038.741.038 14.817 0 26.829-12.012 26.829-26.829s-12.012-26.829-26.829-26.829z" fill="#f4a200"/></svg>