<svg xmlns="http://www.w3.org/2000/svg" width="1920" height="1080"><path d="M150,1306L-128,1310L412,1330Z" fill="#a5506e" stroke="#a5506e" stroke-width="1.51"/><path d="M1066,1335L840,1334L1208,1339Z" fill="#9e99b8" stroke="#9e99b8" stroke-width="1.51"/><path d="M1602,1337L1208,1339L1764,1344Z" fill="#6b82be" stroke="#6b82be" stroke-width="1.51"/><path d="M1439,-192L1794,-190L1879,-215Z" fill="#af6f77" stroke="#af6f77" stroke-width="1.51"/><path d="M1219,-258L1439,-192L1879,-215Z" fill="#be7e7f" stroke="#be7e7f" stroke-width="1.51"/><path d="M1967,857L2028,1037L2049,789Z" fill="#7495c7" stroke="#7495c7" stroke-width="1.51"/><path d="M2049,789L2028,1037L2109,688Z" fill="#7c94c7" stroke="#7c94c7" stroke-width="1.51"/><path d="M2028,1037L2035,1186L2109,688Z" fill="#6686be" stroke="#6686be" stroke-width="1.51"/><path d="M2035,1186L2041,1285L2109,688Z" fill="#577ab8" stroke="#577ab8" stroke-width="1.51"/><path d="M2029,586L2109,688L2114,375Z" fill="#a49fb3" stroke="#a49fb3" stroke-width="1.51"/><path d="M1968,333L2029,586L2114,375Z" fill="#a99ca6" stroke="#a99ca6" stroke-width="1.51"/><path d="M2114,375L2109,688L2129,292Z" fill="#a592a4" stroke="#a592a4" stroke-width="1.51"/><path d="M2046,-7L1984,86L2140,77Z" fill="#ab6076" stroke="#ab6076" stroke-width="1.51"/><path d="M1990,198L2129,292L2140,77Z" fill="#aa7483" stroke="#aa7483" stroke-width="1.51"/><path d="M1984,86L1990,198L2140,77Z" fill="#ad6f7e" stroke="#ad6f7e" stroke-width="1.51"/><path d="M2043,-156L2046,-7L2140,77Z" fill="#a5506e" stroke="#a5506e" stroke-width="1.51"/><path d="M1968,333L1929,563L2029,586Z" fill="#aaaab2" stroke="#aaaab2" stroke-width="1.51"/><path d="M1968,333L2114,375L2129,292Z" fill="#a98c97" stroke="#a98c97" stroke-width="1.51"/><path d="M1990,198L1968,333L2129,292Z" fill="#ac8a91" stroke="#ac8a91" stroke-width="1.51"/><path d="M1958,715L2049,789L2109,688Z" fill="#8f9fce" stroke="#8f9fce" stroke-width="1.51"/><path d="M2029,586L1958,715L2109,688Z" fill="#99a3c9" stroke="#99a3c9" stroke-width="1.51"/><path d="M1967,857L1927,1047L2028,1037Z" fill="#6690c3" stroke="#6690c3" stroke-width="1.51"/><path d="M2028,1037L1927,1047L2035,1186Z" fill="#547db9" stroke="#547db9" stroke-width="1.51"/><path d="M1927,1047L1919,1180L2035,1186Z" fill="#4e7ab7" stroke="#4e7ab7" stroke-width="1.51"/><path d="M1890,1242L1764,1344L2041,1285Z" fill="#4466ad" stroke="#4466ad" stroke-width="1.51"/><path d="M2035,1186L1919,1180L2041,1285Z" fill="#4267ae" stroke="#4267ae" stroke-width="1.51"/><path d="M1919,1180L1890,1242L2041,1285Z" fill="#436aaf" stroke="#436aaf" stroke-width="1.51"/><path d="M2043,-156L1905,-85L2046,-7Z" fill="#a6556d" stroke="#a6556d" stroke-width="1.51"/><path d="M1958,715L1967,857L2049,789Z" fill="#87a1ce" stroke="#87a1ce" stroke-width="1.51"/><path d="M1905,-85L1984,86L2046,-7Z" fill="#ac6475" stroke="#ac6475" stroke-width="1.51"/><path d="M1929,563L1958,715L2029,586Z" fill="#a0adc5" stroke="#a0adc5" stroke-width="1.51"/><path d="M1879,-215L1905,-85L2043,-156Z" fill="#a2556b" stroke="#a2556b" stroke-width="1.51"/><path d="M1439,-192L1680,-155L1794,-190Z" fill="#b9777a" stroke="#b9777a" stroke-width="1.51"/><path d="M1759,988L1927,1047L1967,857Z" fill="#6e9eca" stroke="#6e9eca" stroke-width="1.51"/><path d="M1958,715L1782,819L1967,857Z" fill="#89add3" stroke="#89add3" stroke-width="1.51"/><path d="M1777,421L1929,563L1968,333Z" fill="#b0b1af" stroke="#b0b1af" stroke-width="1.51"/><path d="M1743,131L1750,186L1984,86Z" fill="#bb8f8b" stroke="#bb8f8b" stroke-width="1.51"/><path d="M1905,-85L1816,-5L1984,86Z" fill="#b16f7a" stroke="#b16f7a" stroke-width="1.51"/><path d="M1984,86L1750,186L1990,198Z" fill="#b48989" stroke="#b48989" stroke-width="1.51"/><path d="M1750,186L1968,333L1990,198Z" fill="#b49793" stroke="#b49793" stroke-width="1.51"/><path d="M1816,-5L1743,131L1984,86Z" fill="#b98084" stroke="#b98084" stroke-width="1.51"/><path d="M1929,563L1799,598L1958,715Z" fill="#a4b8cb" stroke="#a4b8cb" stroke-width="1.51"/><path d="M1782,819L1759,988L1967,857Z" fill="#7fadd2" stroke="#7fadd2" stroke-width="1.51"/><path d="M1750,186L1777,421L1968,333Z" fill="#b8aaa1" stroke="#b8aaa1" stroke-width="1.51"/><path d="M1769,718L1782,819L1958,715Z" fill="#96b9d9" stroke="#96b9d9" stroke-width="1.51"/><path d="M1799,598L1769,718L1958,715Z" fill="#a1bcd6" stroke="#a1bcd6" stroke-width="1.51"/><path d="M1879,-215L1794,-190L1905,-85Z" fill="#a75f6f" stroke="#a75f6f" stroke-width="1.51"/><path d="M1755,1097L1919,1180L1927,1047Z" fill="#588abf" stroke="#588abf" stroke-width="1.51"/><path d="M1777,421L1799,598L1929,563Z" fill="#b3c0be" stroke="#b3c0be" stroke-width="1.51"/><path d="M1759,988L1755,1097L1927,1047Z" fill="#679bc8" stroke="#679bc8" stroke-width="1.51"/><path d="M1755,1097L1890,1242L1919,1180Z" fill="#5081bb" stroke="#5081bb" stroke-width="1.51"/><path d="M1794,-190L1816,-5L1905,-85Z" fill="#b16a74" stroke="#b16a74" stroke-width="1.51"/><path d="M1750,186L1677,374L1777,421Z" fill="#c0b8a8" stroke="#c0b8a8" stroke-width="1.51"/><path d="M1755,1097L1764,1344L1890,1242Z" fill="#517db9" stroke="#517db9" stroke-width="1.51"/><path d="M1755,1097L1639,1105L1764,1344Z" fill="#5d8fc2" stroke="#5d8fc2" stroke-width="1.51"/><path d="M1639,1105L1602,1337L1764,1344Z" fill="#5d85bd" stroke="#5d85bd" stroke-width="1.51"/><path d="M1663,882L1759,988L1782,819Z" fill="#87b9d7" stroke="#87b9d7" stroke-width="1.51"/><path d="M1680,-155L1688,-59L1794,-190Z" fill="#b87377" stroke="#b87377" stroke-width="1.51"/><path d="M1777,421L1649,499L1799,598Z" fill="#bbcac1" stroke="#bbcac1" stroke-width="1.51"/><path d="M1686,49L1743,131L1816,-5Z" fill="#c28b88" stroke="#c28b88" stroke-width="1.51"/><path d="M1688,-59L1686,49L1816,-5Z" fill="#c08382" stroke="#c08382" stroke-width="1.51"/><path d="M1794,-190L1688,-59L1816,-5Z" fill="#b87379" stroke="#b87379" stroke-width="1.51"/><path d="M1583,689L1769,718L1799,598Z" fill="#adccdd" stroke="#adccdd" stroke-width="1.51"/><path d="M1649,499L1583,689L1799,598Z" fill="#bad4d2" stroke="#bad4d2" stroke-width="1.51"/><path d="M1581,280L1677,374L1750,186Z" fill="#c7b9a5" stroke="#c7b9a5" stroke-width="1.51"/><path d="M1659,1027L1755,1097L1759,988Z" fill="#70a7cf" stroke="#70a7cf" stroke-width="1.51"/><path d="M1769,718L1663,882L1782,819Z" fill="#96c0dd" stroke="#96c0dd" stroke-width="1.51"/><path d="M1583,689L1663,882L1769,718Z" fill="#a3cce2" stroke="#a3cce2" stroke-width="1.51"/><path d="M1677,374L1649,499L1777,421Z" fill="#c0c9b9" stroke="#c0c9b9" stroke-width="1.51"/><path d="M1528,1244L1602,1337L1639,1105Z" fill="#6892c5" stroke="#6892c5" stroke-width="1.51"/><path d="M1663,882L1659,1027L1759,988Z" fill="#7fb4d5" stroke="#7fb4d5" stroke-width="1.51"/><path d="M1659,1027L1639,1105L1755,1097Z" fill="#6ea5cd" stroke="#6ea5cd" stroke-width="1.51"/><path d="M1743,131L1581,280L1750,186Z" fill="#c7aa99" stroke="#c7aa99" stroke-width="1.51"/><path d="M1686,49L1581,280L1743,131Z" fill="#c9a595" stroke="#c9a595" stroke-width="1.51"/><path d="M1533,1137L1528,1244L1639,1105Z" fill="#71a1cc" stroke="#71a1cc" stroke-width="1.51"/><path d="M1528,544L1583,689L1649,499Z" fill="#c5dcd4" stroke="#c5dcd4" stroke-width="1.51"/><path d="M1583,689L1530,699L1663,882Z" fill="#add4e7" stroke="#add4e7" stroke-width="1.51"/><path d="M1510,390L1649,499L1677,374Z" fill="#c9d0bc" stroke="#c9d0bc" stroke-width="1.51"/><path d="M1448,146L1581,280L1686,49Z" fill="#d3af9a" stroke="#d3af9a" stroke-width="1.51"/><path d="M1459,-44L1686,49L1688,-59Z" fill="#cb8d87" stroke="#cb8d87" stroke-width="1.51"/><path d="M1680,-155L1459,-44L1688,-59Z" fill="#c78480" stroke="#c78480" stroke-width="1.51"/><path d="M1459,-44L1448,146L1686,49Z" fill="#d79f91" stroke="#d79f91" stroke-width="1.51"/><path d="M1470,1038L1659,1027L1663,882Z" fill="#87bbd9" stroke="#87bbd9" stroke-width="1.51"/><path d="M1439,-192L1459,-44L1680,-155Z" fill="#cb8680" stroke="#cb8680" stroke-width="1.51"/><path d="M1530,699L1430,799L1663,882Z" fill="#acd5e8" stroke="#acd5e8" stroke-width="1.51"/><path d="M1581,280L1510,390L1677,374Z" fill="#cccab2" stroke="#cccab2" stroke-width="1.51"/><path d="M1430,799L1470,1038L1663,882Z" fill="#9ccce2" stroke="#9ccce2" stroke-width="1.51"/><path d="M1470,1038L1639,1105L1659,1027Z" fill="#7cb1d4" stroke="#7cb1d4" stroke-width="1.51"/><path d="M1470,1038L1533,1137L1639,1105Z" fill="#7cafd3" stroke="#7cafd3" stroke-width="1.51"/><path d="M1510,390L1528,544L1649,499Z" fill="#cddac6" stroke="#cddac6" stroke-width="1.51"/><path d="M1430,799L1388,972L1470,1038Z" fill="#a1d0e4" stroke="#a1d0e4" stroke-width="1.51"/><path d="M1280,1267L1208,1339L1602,1337Z" fill="#7f92c7" stroke="#7f92c7" stroke-width="1.51"/><path d="M744,-265L890,-224L1219,-258Z" fill="#e0936c" stroke="#e0936c" stroke-width="1.51"/><path d="M1448,146L1436,222L1581,280Z" fill="#dac0a4" stroke="#dac0a4" stroke-width="1.51"/><path d="M1528,544L1530,699L1583,689Z" fill="#c2dee1" stroke="#c2dee1" stroke-width="1.51"/><path d="M1528,1244L1280,1267L1602,1337Z" fill="#7492c5" stroke="#7492c5" stroke-width="1.51"/><path d="M1436,222L1510,390L1581,280Z" fill="#d6caaf" stroke="#d6caaf" stroke-width="1.51"/><path d="M1436,222L1360,289L1510,390Z" fill="#ddd2b3" stroke="#ddd2b3" stroke-width="1.51"/><path d="M1510,390L1372,499L1528,544Z" fill="#d6e3ca" stroke="#d6e3ca" stroke-width="1.51"/><path d="M1338,1174L1280,1267L1528,1244Z" fill="#81a2ce" stroke="#81a2ce" stroke-width="1.51"/><path d="M1528,544L1372,499L1530,699Z" fill="#d0e7d9" stroke="#d0e7d9" stroke-width="1.51"/><path d="M1372,499L1287,732L1530,699Z" fill="#d2eae8" stroke="#d2eae8" stroke-width="1.51"/><path d="M1338,1174L1528,1244L1533,1137Z" fill="#7aa6cf" stroke="#7aa6cf" stroke-width="1.51"/><path d="M1470,1038L1338,1174L1533,1137Z" fill="#85b4d6" stroke="#85b4d6" stroke-width="1.51"/><path d="M1287,732L1430,799L1530,699Z" fill="#c3e4f0" stroke="#c3e4f0" stroke-width="1.51"/><path d="M1219,-258L1371,-171L1439,-192Z" fill="#d08a85" stroke="#d08a85" stroke-width="1.51"/><path d="M1360,289L1372,499L1510,390Z" fill="#dddfc1" stroke="#dddfc1" stroke-width="1.51"/><path d="M1360,289L1283,382L1372,499Z" fill="#e5e3c2" stroke="#e5e3c2" stroke-width="1.51"/><path d="M1313,829L1388,972L1430,799Z" fill="#b3ddeb" stroke="#b3ddeb" stroke-width="1.51"/><path d="M1439,-192L1371,-171L1459,-44Z" fill="#d48e84" stroke="#d48e84" stroke-width="1.51"/><path d="M1315,138L1448,146L1459,-44Z" fill="#e3ae99" stroke="#e3ae99" stroke-width="1.51"/><path d="M1294,-76L1315,138L1459,-44Z" fill="#e5a492" stroke="#e5a492" stroke-width="1.51"/><path d="M1388,972L1338,1174L1470,1038Z" fill="#91c0dc" stroke="#91c0dc" stroke-width="1.51"/><path d="M1371,-171L1294,-76L1459,-44Z" fill="#dd9588" stroke="#dd9588" stroke-width="1.51"/><path d="M1210,592L1287,732L1372,499Z" fill="#e1f1e5" stroke="#e1f1e5" stroke-width="1.51"/><path d="M1315,138L1436,222L1448,146Z" fill="#e3bea2" stroke="#e3bea2" stroke-width="1.51"/><path d="M1294,-76L1225,-11L1315,138Z" fill="#edaa96" stroke="#edaa96" stroke-width="1.51"/><path d="M1287,732L1313,829L1430,799Z" fill="#c4e4f0" stroke="#c4e4f0" stroke-width="1.51"/><path d="M1315,138L1360,289L1436,222Z" fill="#e6c9a8" stroke="#e6c9a8" stroke-width="1.51"/><path d="M1223,949L1338,1174L1388,972Z" fill="#9fcae1" stroke="#9fcae1" stroke-width="1.51"/><path d="M1313,829L1223,949L1388,972Z" fill="#b3d9e9" stroke="#b3d9e9" stroke-width="1.51"/><path d="M1225,-11L1218,110L1315,138Z" fill="#f2b59d" stroke="#f2b59d" stroke-width="1.51"/><path d="M1223,949L1163,1174L1338,1174Z" fill="#9fc1de" stroke="#9fc1de" stroke-width="1.51"/><path d="M1283,382L1201,423L1372,499Z" fill="#eaeaca" stroke="#eaeaca" stroke-width="1.51"/><path d="M1201,423L1210,592L1372,499Z" fill="#ebf2d5" stroke="#ebf2d5" stroke-width="1.51"/><path d="M1219,-258L1294,-76L1371,-171Z" fill="#db9187" stroke="#db9187" stroke-width="1.51"/><path d="M1315,138L1137,285L1360,289Z" fill="#efd0ae" stroke="#efd0ae" stroke-width="1.51"/><path d="M1137,285L1283,382L1360,289Z" fill="#efddba" stroke="#efddba" stroke-width="1.51"/><path d="M1218,110L1137,285L1315,138Z" fill="#f4c9a8" stroke="#f4c9a8" stroke-width="1.51"/><path d="M1163,1174L1280,1267L1338,1174Z" fill="#90add4" stroke="#90add4" stroke-width="1.51"/><path d="M1090,1031L1163,1174L1223,949Z" fill="#adcdde" stroke="#adcdde" stroke-width="1.51"/><path d="M1287,732L1176,891L1313,829Z" fill="#c8e7f1" stroke="#c8e7f1" stroke-width="1.51"/><path d="M1176,891L1223,949L1313,829Z" fill="#bfe1ee" stroke="#bfe1ee" stroke-width="1.51"/><path d="M1219,-258L1024,-154L1225,-11Z" fill="#ea9985" stroke="#ea9985" stroke-width="1.51"/><path d="M1137,285L1201,423L1283,382Z" fill="#f2e7c3" stroke="#f2e7c3" stroke-width="1.51"/><path d="M1210,592L1139,638L1287,732Z" fill="#e4f4ef" stroke="#e4f4ef" stroke-width="1.51"/><path d="M1219,-258L1225,-11L1294,-76Z" fill="#e8988a" stroke="#e8988a" stroke-width="1.51"/><path d="M1139,638L1048,745L1287,732Z" fill="#e3f4f3" stroke="#e3f4f3" stroke-width="1.51"/><path d="M1053,805L1176,891L1287,732Z" fill="#d2ebf0" stroke="#d2ebf0" stroke-width="1.51"/><path d="M1048,745L1053,805L1287,732Z" fill="#dcf0ed" stroke="#dcf0ed" stroke-width="1.51"/><path d="M1163,1174L1208,1339L1280,1267Z" fill="#92a4d0" stroke="#92a4d0" stroke-width="1.51"/><path d="M193,-259L464,-211L744,-265Z" fill="#d86842" stroke="#d86842" stroke-width="1.51"/><path d="M1163,1174L1066,1335L1208,1339Z" fill="#98a1c8" stroke="#98a1c8" stroke-width="1.51"/><path d="M1201,423L1071,533L1210,592Z" fill="#f4f7d4" stroke="#f4f7d4" stroke-width="1.51"/><path d="M1051,91L1137,285L1218,110Z" fill="#fac9a0" stroke="#fac9a0" stroke-width="1.51"/><path d="M890,-224L1024,-154L1219,-258Z" fill="#e39577" stroke="#e39577" stroke-width="1.51"/><path d="M979,-78L1051,91L1225,-11Z" fill="#f8ae89" stroke="#f8ae89" stroke-width="1.51"/><path d="M1024,-154L979,-78L1225,-11Z" fill="#f3a380" stroke="#f3a380" stroke-width="1.51"/><path d="M1051,91L1218,110L1225,-11Z" fill="#f8b799" stroke="#f8b799" stroke-width="1.51"/><path d="M1176,891L1090,1031L1223,949Z" fill="#bcdbe6" stroke="#bcdbe6" stroke-width="1.51"/><path d="M1051,91L1081,284L1137,285Z" fill="#fbd4a1" stroke="#fbd4a1" stroke-width="1.51"/><path d="M1137,285L1026,406L1201,423Z" fill="#f7ebbb" stroke="#f7ebbb" stroke-width="1.51"/><path d="M1071,533L1139,638L1210,592Z" fill="#f0f8dd" stroke="#f0f8dd" stroke-width="1.51"/><path d="M1026,406L1071,533L1201,423Z" fill="#f8f3c3" stroke="#f8f3c3" stroke-width="1.51"/><path d="M1081,284L1026,406L1137,285Z" fill="#fae5af" stroke="#fae5af" stroke-width="1.51"/><path d="M1090,1031L1027,1143L1163,1174Z" fill="#abc3d2" stroke="#abc3d2" stroke-width="1.51"/><path d="M1027,1143L1066,1335L1163,1174Z" fill="#a0b0c8" stroke="#a0b0c8" stroke-width="1.51"/><path d="M1053,805L1090,1031L1176,891Z" fill="#c8e3e3" stroke="#c8e3e3" stroke-width="1.51"/><path d="M1053,805L926,860L1090,1031Z" fill="#d0e6da" stroke="#d0e6da" stroke-width="1.51"/><path d="M1071,533L1048,745L1139,638Z" fill="#eff8df" stroke="#eff8df" stroke-width="1.51"/><path d="M243,1306L150,1306L412,1330Z" fill="#a95d76" stroke="#a95d76" stroke-width="1.51"/><path d="M1027,1143L897,1194L1066,1335Z" fill="#a7b1be" stroke="#a7b1be" stroke-width="1.51"/><path d="M922,732L1048,745L1071,533Z" fill="#f1f8dc" stroke="#f1f8dc" stroke-width="1.51"/><path d="M922,511L922,732L1071,533Z" fill="#fbfcca" stroke="#fbfcca" stroke-width="1.51"/><path d="M1051,91L931,289L1081,284Z" fill="#fed699" stroke="#fed699" stroke-width="1.51"/><path d="M931,289L1026,406L1081,284Z" fill="#fee6a7" stroke="#fee6a7" stroke-width="1.51"/><path d="M912,1032L1027,1143L1090,1031Z" fill="#b8cdcc" stroke="#b8cdcc" stroke-width="1.51"/><path d="M926,860L912,1032L1090,1031Z" fill="#c7ddcf" stroke="#c7ddcf" stroke-width="1.51"/><path d="M1026,406L922,511L1071,533Z" fill="#fdf8bd" stroke="#fdf8bd" stroke-width="1.51"/><path d="M863,79L931,289L1051,91Z" fill="#ffcb89" stroke="#ffcb89" stroke-width="1.51"/><path d="M897,1194L840,1334L1066,1335Z" fill="#a7a3b2" stroke="#a7a3b2" stroke-width="1.51"/><path d="M979,-78L863,79L1051,91Z" fill="#ffb67e" stroke="#ffb67e" stroke-width="1.51"/><path d="M897,-63L863,79L979,-78Z" fill="#fbac74" stroke="#fbac74" stroke-width="1.51"/><path d="M1048,745L922,732L1053,805Z" fill="#e5f3df" stroke="#e5f3df" stroke-width="1.51"/><path d="M922,732L926,860L1053,805Z" fill="#e2f1d9" stroke="#e2f1d9" stroke-width="1.51"/><path d="M912,1032L897,1194L1027,1143Z" fill="#b5c4c1" stroke="#b5c4c1" stroke-width="1.51"/><path d="M931,289L826,344L1026,406Z" fill="#ffe9a0" stroke="#ffe9a0" stroke-width="1.51"/><path d="M826,344L922,511L1026,406Z" fill="#fff1aa" stroke="#fff1aa" stroke-width="1.51"/><path d="M890,-224L979,-78L1024,-154Z" fill="#ef9d6f" stroke="#ef9d6f" stroke-width="1.51"/><path d="M621,1267L412,1330L840,1334Z" fill="#aa8792" stroke="#aa8792" stroke-width="1.51"/><path d="M922,511L785,708L922,732Z" fill="#f7f5ca" stroke="#f7f5ca" stroke-width="1.51"/><path d="M890,-224L897,-63L979,-78Z" fill="#f39d6c" stroke="#f39d6c" stroke-width="1.51"/><path d="M758,1096L897,1194L912,1032Z" fill="#b8c1b9" stroke="#b8c1b9" stroke-width="1.51"/><path d="M826,344L732,484L922,511Z" fill="#ffeea4" stroke="#ffeea4" stroke-width="1.51"/><path d="M732,484L785,708L922,511Z" fill="#fdf4b5" stroke="#fdf4b5" stroke-width="1.51"/><path d="M785,708L754,833L922,732Z" fill="#eaeccc" stroke="#eaeccc" stroke-width="1.51"/><path d="M751,1003L912,1032L926,860Z" fill="#cbd8c5" stroke="#cbd8c5" stroke-width="1.51"/><path d="M754,833L751,1003L926,860Z" fill="#d6dec4" stroke="#d6dec4" stroke-width="1.51"/><path d="M922,732L754,833L926,860Z" fill="#e2ebcf" stroke="#e2ebcf" stroke-width="1.51"/><path d="M863,79L696,254L931,289Z" fill="#ffce82" stroke="#ffce82" stroke-width="1.51"/><path d="M696,254L826,344L931,289Z" fill="#ffda8e" stroke="#ffda8e" stroke-width="1.51"/><path d="M769,62L696,254L863,79Z" fill="#ffbc76" stroke="#ffbc76" stroke-width="1.51"/><path d="M769,62L863,79L897,-63Z" fill="#fdae72" stroke="#fdae72" stroke-width="1.51"/><path d="M890,-224L744,-265L897,-63Z" fill="#e89264" stroke="#e89264" stroke-width="1.51"/><path d="M744,-265L711,-10L897,-63Z" fill="#f2955f" stroke="#f2955f" stroke-width="1.51"/><path d="M751,1003L758,1096L912,1032Z" fill="#c1caba" stroke="#c1caba" stroke-width="1.51"/><path d="M696,1252L840,1334L897,1194Z" fill="#aaa1a9" stroke="#aaa1a9" stroke-width="1.51"/><path d="M758,1096L696,1252L897,1194Z" fill="#b0afac" stroke="#b0afac" stroke-width="1.51"/><path d="M711,-10L769,62L897,-63Z" fill="#faa66a" stroke="#faa66a" stroke-width="1.51"/><path d="M696,1252L621,1267L840,1334Z" fill="#a9979e" stroke="#a9979e" stroke-width="1.51"/><path d="M688,418L732,484L826,344Z" fill="#ffe698" stroke="#ffe698" stroke-width="1.51"/><path d="M696,254L688,418L826,344Z" fill="#fedc8c" stroke="#fedc8c" stroke-width="1.51"/><path d="M555,-161L711,-10L744,-265Z" fill="#eb8854" stroke="#eb8854" stroke-width="1.51"/><path d="M604,822L751,1003L754,833Z" fill="#d9d8bb" stroke="#d9d8bb" stroke-width="1.51"/><path d="M621,65L696,254L769,62Z" fill="#fdb56e" stroke="#fdb56e" stroke-width="1.51"/><path d="M732,484L552,513L785,708Z" fill="#feeba9" stroke="#feeba9" stroke-width="1.51"/><path d="M552,513L531,732L785,708Z" fill="#f9e1b1" stroke="#f9e1b1" stroke-width="1.51"/><path d="M604,822L754,833L785,708Z" fill="#e7e2c0" stroke="#e7e2c0" stroke-width="1.51"/><path d="M531,732L604,822L785,708Z" fill="#eeddba" stroke="#eeddba" stroke-width="1.51"/><path d="M546,1153L696,1252L758,1096Z" fill="#b3a9a2" stroke="#b3a9a2" stroke-width="1.51"/><path d="M711,-10L621,65L769,62Z" fill="#fca666" stroke="#fca666" stroke-width="1.51"/><path d="M555,-161L540,-107L711,-10Z" fill="#f08850" stroke="#f08850" stroke-width="1.51"/><path d="M604,822L532,989L751,1003Z" fill="#d3cab0" stroke="#d3cab0" stroke-width="1.51"/><path d="M751,1003L532,989L758,1096Z" fill="#c4c3af" stroke="#c4c3af" stroke-width="1.51"/><path d="M532,989L546,1153L758,1096Z" fill="#c0b3a4" stroke="#c0b3a4" stroke-width="1.51"/><path d="M464,-211L555,-161L744,-265Z" fill="#e0794c" stroke="#e0794c" stroke-width="1.51"/><path d="M578,332L688,418L696,254Z" fill="#ffd383" stroke="#ffd383" stroke-width="1.51"/><path d="M546,1153L621,1267L696,1252Z" fill="#af999a" stroke="#af999a" stroke-width="1.51"/><path d="M688,418L552,513L732,484Z" fill="#ffe297" stroke="#ffe297" stroke-width="1.51"/><path d="M621,65L540,281L696,254Z" fill="#febb6d" stroke="#febb6d" stroke-width="1.51"/><path d="M540,-107L621,65L711,-10Z" fill="#f79559" stroke="#f79559" stroke-width="1.51"/><path d="M540,281L578,332L696,254Z" fill="#fec778" stroke="#fec778" stroke-width="1.51"/><path d="M578,332L552,513L688,418Z" fill="#ffd98b" stroke="#ffd98b" stroke-width="1.51"/><path d="M431,700L531,732L552,513Z" fill="#fad5a5" stroke="#fad5a5" stroke-width="1.51"/><path d="M448,413L552,513L578,332Z" fill="#ffd083" stroke="#ffd083" stroke-width="1.51"/><path d="M436,842L532,989L604,822Z" fill="#ddc6a9" stroke="#ddc6a9" stroke-width="1.51"/><path d="M477,81L540,281L621,65Z" fill="#fca861" stroke="#fca861" stroke-width="1.51"/><path d="M540,-107L477,81L621,65Z" fill="#f89155" stroke="#f89155" stroke-width="1.51"/><path d="M546,1153L412,1330L621,1267Z" fill="#af8b8f" stroke="#af8b8f" stroke-width="1.51"/><path d="M480,1143L412,1330L546,1153Z" fill="#b28f8d" stroke="#b28f8d" stroke-width="1.51"/><path d="M532,989L480,1143L546,1153Z" fill="#bfa79a" stroke="#bfa79a" stroke-width="1.51"/><path d="M531,732L436,842L604,822Z" fill="#e9ceac" stroke="#e9ceac" stroke-width="1.51"/><path d="M382,-32L477,81L540,-107Z" fill="#f4834b" stroke="#f4834b" stroke-width="1.51"/><path d="M477,81L386,222L540,281Z" fill="#fdaa5e" stroke="#fdaa5e" stroke-width="1.51"/><path d="M380,552L431,700L552,513Z" fill="#fed196" stroke="#fed196" stroke-width="1.51"/><path d="M540,281L448,413L578,332Z" fill="#fec777" stroke="#fec777" stroke-width="1.51"/><path d="M436,842L392,959L532,989Z" fill="#d6b9a0" stroke="#d6b9a0" stroke-width="1.51"/><path d="M464,-211L540,-107L555,-161Z" fill="#e77646" stroke="#e77646" stroke-width="1.51"/><path d="M448,413L380,552L552,513Z" fill="#ffd087" stroke="#ffd087" stroke-width="1.51"/><path d="M392,959L480,1143L532,989Z" fill="#c8ad9a" stroke="#c8ad9a" stroke-width="1.51"/><path d="M431,700L436,842L531,732Z" fill="#efcba9" stroke="#efcba9" stroke-width="1.51"/><path d="M464,-211L382,-32L540,-107Z" fill="#ec7342" stroke="#ec7342" stroke-width="1.51"/><path d="M386,222L448,413L540,281Z" fill="#feba6d" stroke="#feba6d" stroke-width="1.51"/><path d="M386,222L258,357L448,413Z" fill="#fdb26a" stroke="#fdb26a" stroke-width="1.51"/><path d="M193,-259L337,-160L464,-211Z" fill="#da583a" stroke="#da583a" stroke-width="1.51"/><path d="M337,-160L382,-32L464,-211Z" fill="#e8683e" stroke="#e8683e" stroke-width="1.51"/><path d="M305,182L386,222L477,81Z" fill="#fb9956" stroke="#fb9956" stroke-width="1.51"/><path d="M297,1091L412,1330L480,1143Z" fill="#b58889" stroke="#b58889" stroke-width="1.51"/><path d="M392,959L297,1091L480,1143Z" fill="#c49e92" stroke="#c49e92" stroke-width="1.51"/><path d="M382,-32L262,130L477,81Z" fill="#f8834c" stroke="#f8834c" stroke-width="1.51"/><path d="M262,130L305,182L477,81Z" fill="#fa8e51" stroke="#fa8e51" stroke-width="1.51"/><path d="M297,1091L243,1306L412,1330Z" fill="#b0747f" stroke="#b0747f" stroke-width="1.51"/><path d="M431,700L238,743L436,842Z" fill="#efbea2" stroke="#efbea2" stroke-width="1.51"/><path d="M258,357L380,552L448,413Z" fill="#ffbe7a" stroke="#ffbe7a" stroke-width="1.51"/><path d="M282,1014L297,1091L392,959Z" fill="#ca9d90" stroke="#ca9d90" stroke-width="1.51"/><path d="M380,552L230,595L431,700Z" fill="#fcc393" stroke="#fcc393" stroke-width="1.51"/><path d="M230,595L238,743L431,700Z" fill="#f8bb9b" stroke="#f8bb9b" stroke-width="1.51"/><path d="M248,869L392,959L436,842Z" fill="#ddb29b" stroke="#ddb29b" stroke-width="1.51"/><path d="M238,743L248,869L436,842Z" fill="#e7b29b" stroke="#e7b29b" stroke-width="1.51"/><path d="M337,-160L318,-48L382,-32Z" fill="#ec693f" stroke="#ec693f" stroke-width="1.51"/><path d="M318,-48L262,130L382,-32Z" fill="#f47445" stroke="#f47445" stroke-width="1.51"/><path d="M258,357L180,528L380,552Z" fill="#ffb779" stroke="#ffb779" stroke-width="1.51"/><path d="M180,528L230,595L380,552Z" fill="#ffbb84" stroke="#ffbb84" stroke-width="1.51"/><path d="M305,182L258,357L386,222Z" fill="#fca05c" stroke="#fca05c" stroke-width="1.51"/><path d="M248,869L282,1014L392,959Z" fill="#d5a494" stroke="#d5a494" stroke-width="1.51"/><path d="M128,-78L318,-48L337,-160Z" fill="#e85938" stroke="#e85938" stroke-width="1.51"/><path d="M193,-259L128,-78L337,-160Z" fill="#de4a33" stroke="#de4a33" stroke-width="1.51"/><path d="M93,1122L150,1306L243,1306Z" fill="#ac6275" stroke="#ac6275" stroke-width="1.51"/><path d="M93,1122L243,1306L297,1091Z" fill="#b5757d" stroke="#b5757d" stroke-width="1.51"/><path d="M85,220L258,357L305,182Z" fill="#f99356" stroke="#f99356" stroke-width="1.51"/><path d="M128,-78L262,130L318,-48Z" fill="#f1663f" stroke="#f1663f" stroke-width="1.51"/><path d="M128,-78L81,104L262,130Z" fill="#f0653e" stroke="#f0653e" stroke-width="1.51"/><path d="M262,130L85,220L305,182Z" fill="#f7864d" stroke="#f7864d" stroke-width="1.51"/><path d="M248,869L141,1041L282,1014Z" fill="#d0978d" stroke="#d0978d" stroke-width="1.51"/><path d="M282,1014L141,1041L297,1091Z" fill="#c68e89" stroke="#c68e89" stroke-width="1.51"/><path d="M141,1041L93,1122L297,1091Z" fill="#bf8281" stroke="#bf8281" stroke-width="1.51"/><path d="M98,893L141,1041L248,869Z" fill="#d4968b" stroke="#d4968b" stroke-width="1.51"/><path d="M98,408L180,528L258,357Z" fill="#fba76c" stroke="#fba76c" stroke-width="1.51"/><path d="M230,595L89,633L238,743Z" fill="#f7ae8f" stroke="#f7ae8f" stroke-width="1.51"/><path d="M238,743L98,893L248,869Z" fill="#e3a493" stroke="#e3a493" stroke-width="1.51"/><path d="M85,220L98,408L258,357Z" fill="#f7985c" stroke="#f7985c" stroke-width="1.51"/><path d="M81,104L85,220L262,130Z" fill="#f27946" stroke="#f27946" stroke-width="1.51"/><path d="M89,633L98,893L238,743Z" fill="#eba492" stroke="#eba492" stroke-width="1.51"/><path d="M180,528L89,633L230,595Z" fill="#faaf82" stroke="#faaf82" stroke-width="1.51"/><path d="M89,633L-12,675L98,893Z" fill="#ea9d8d" stroke="#ea9d8d" stroke-width="1.51"/><path d="M-34,-161L128,-78L193,-259Z" fill="#d63a2c" stroke="#d63a2c" stroke-width="1.51"/><path d="M-148,-220L-34,-161L193,-259Z" fill="#c82627" stroke="#c82627" stroke-width="1.51"/><path d="M98,408L-38,499L180,528Z" fill="#f7a26c" stroke="#f7a26c" stroke-width="1.51"/><path d="M-38,499L89,633L180,528Z" fill="#f8a777" stroke="#f8a777" stroke-width="1.51"/><path d="M85,220L-37,375L98,408Z" fill="#f28f56" stroke="#f28f56" stroke-width="1.51"/><path d="M-12,675L-69,835L98,893Z" fill="#df9487" stroke="#df9487" stroke-width="1.51"/><path d="M-34,-161L13,-78L128,-78Z" fill="#db392a" stroke="#db392a" stroke-width="1.51"/><path d="M-9,57L81,104L128,-78Z" fill="#e85637" stroke="#e85637" stroke-width="1.51"/><path d="M13,-78L-9,57L128,-78Z" fill="#e24830" stroke="#e24830" stroke-width="1.51"/><path d="M98,893L-62,953L141,1041Z" fill="#cb8882" stroke="#cb8882" stroke-width="1.51"/><path d="M93,1122L-63,1236L150,1306Z" fill="#a85d70" stroke="#a85d70" stroke-width="1.51"/><path d="M-63,1236L-128,1310L150,1306Z" fill="#9f4866" stroke="#9f4866" stroke-width="1.51"/><path d="M-62,953L93,1122L141,1041Z" fill="#c07e7d" stroke="#c07e7d" stroke-width="1.51"/><path d="M81,104L-72,198L85,220Z" fill="#ed7241" stroke="#ed7241" stroke-width="1.51"/><path d="M-72,198L-37,375L85,220Z" fill="#ed7e4a" stroke="#ed7e4a" stroke-width="1.51"/><path d="M-38,499L-12,675L89,633Z" fill="#f29f7a" stroke="#f29f7a" stroke-width="1.51"/><path d="M-62,953L-73,1171L93,1122Z" fill="#b67076" stroke="#b67076" stroke-width="1.51"/><path d="M-73,1171L-63,1236L93,1122Z" fill="#a95f6f" stroke="#a95f6f" stroke-width="1.51"/><path d="M-37,375L-38,499L98,408Z" fill="#f29660" stroke="#f29660" stroke-width="1.51"/><path d="M-69,835L-62,953L98,893Z" fill="#d18b82" stroke="#d18b82" stroke-width="1.51"/><path d="M-9,57L-72,198L81,104Z" fill="#e9633b" stroke="#e9633b" stroke-width="1.51"/><path d="M-132,1154L-73,1171L-62,953Z" fill="#ac6974" stroke="#ac6974" stroke-width="1.51"/><path d="M-72,198L-146,331L-37,375Z" fill="#e67f4f" stroke="#e67f4f" stroke-width="1.51"/><path d="M-38,499L-145,530L-12,675Z" fill="#ec9a73" stroke="#ec9a73" stroke-width="1.51"/><path d="M-115,-74L-9,57L13,-78Z" fill="#db402e" stroke="#db402e" stroke-width="1.51"/><path d="M-34,-161L-115,-74L13,-78Z" fill="#d33028" stroke="#d33028" stroke-width="1.51"/><path d="M-198,635L-69,835L-12,675Z" fill="#df9289" stroke="#df9289" stroke-width="1.51"/><path d="M-145,530L-198,635L-12,675Z" fill="#e4957a" stroke="#e4957a" stroke-width="1.51"/><path d="M-214,123L-72,198L-9,57Z" fill="#de5d3b" stroke="#de5d3b" stroke-width="1.51"/><path d="M-115,-74L-214,123L-9,57Z" fill="#d94834" stroke="#d94834" stroke-width="1.51"/><path d="M-198,635L-144,854L-69,835Z" fill="#d38c86" stroke="#d38c86" stroke-width="1.51"/><path d="M-210,957L-132,1154L-62,953Z" fill="#b17379" stroke="#b17379" stroke-width="1.51"/><path d="M-69,835L-144,854L-62,953Z" fill="#ca8782" stroke="#ca8782" stroke-width="1.51"/><path d="M-145,530L-38,499L-37,375Z" fill="#eb9465" stroke="#eb9465" stroke-width="1.51"/><path d="M-146,331L-145,530L-37,375Z" fill="#e68c5d" stroke="#e68c5d" stroke-width="1.51"/><path d="M-148,-220L-115,-74L-34,-161Z" fill="#c72527" stroke="#c72527" stroke-width="1.51"/><path d="M-189,242L-146,331L-72,198Z" fill="#de7449" stroke="#de7449" stroke-width="1.51"/><path d="M-73,1171L-132,1154L-63,1236Z" fill="#a0586d" stroke="#a0586d" stroke-width="1.51"/><path d="M-144,854L-210,957L-62,953Z" fill="#bf7f7f" stroke="#bf7f7f" stroke-width="1.51"/><path d="M-132,1154L-128,1310L-63,1236Z" fill="#994e69" stroke="#994e69" stroke-width="1.51"/><path d="M-214,123L-189,242L-72,198Z" fill="#da6741" stroke="#da6741" stroke-width="1.51"/><path d="M-148,-220L-214,123L-115,-74Z" fill="#cc332c" stroke="#cc332c" stroke-width="1.51"/><path d="M-132,1154L-210,957L-128,1310Z" fill="#9f5d70" stroke="#9f5d70" stroke-width="1.51"/><path d="M-146,331L-189,242L-145,530Z" fill="#de8557" stroke="#de8557" stroke-width="1.51"/><path d="M-189,242L-198,635L-145,530Z" fill="#df8e65" stroke="#df8e65" stroke-width="1.51"/><path d="M-198,635L-210,957L-144,854Z" fill="#c88684" stroke="#c88684" stroke-width="1.51"/><path d="M-214,123L-198,635L-189,242Z" fill="#d97c52" stroke="#d97c52" stroke-width="1.51"/><path d="M-214,123L-210,957L-198,635Z" fill="#dc9172" stroke="#dc9172" stroke-width="1.51"/></svg>